# xmcd
#
# Track frame offsets:
#	150
#	35945
#	39340
#	72992
#	76390
#	140455
#	144375
#	237232
#	255360
#	265805
#	276615
#	288910
#	300515
#	311877
#	314630
#	317402
#
# Disc length: 4269 seconds
#
# Revision: 1
# Processed by: cddbd v1.5.1PL0 Copyright (c) Steve Scherf et al.
# Submitted via: CDex 1.50Beta5
#
DISCID=ee10ab10
DTITLE=らぶドル - らぶドル 1st.project
DYEAR=1900
DGENRE=Other
TTITLE0=第1話 君の名は・・・?
TTITLE1=CM1
TTITLE2=第2話 Lovely Idol,全員集合
TTITLE3=CM2
TTITLE4=第3話 Lovely Idol,ただ今準備中
TTITLE5=CM3
TTITLE6=第4話 大切な人
TTITLE7=日渡あや
TTITLE8=有栖川唯
TTITLE9=進藤あゆみ
TTITLE10=片桐沙悠紀
TTITLE11=北条美奈
TTITLE12=北条知奈
TTITLE13=第2話予告
TTITLE14=第3話予告
TTITLE15=第4話予告
EXTD=
EXTT0=
EXTT1=
EXTT2=
EXTT3=
EXTT4=
EXTT5=
EXTT6=
EXTT7=
EXTT8=
EXTT9=
EXTT10=
EXTT11=
EXTT12=
EXTT13=
EXTT14=
EXTT15=
PLAYORDER=
